<mxfile host="app.diagrams.net" modified="2024-02-13T15:24:26.737Z" agent="Mozilla/5.0 (Windows NT 10.0; Win64; x64) AppleWebKit/537.36 (KHTML, like Gecko) Chrome/121.0.0.0 Safari/537.36" etag="rKqL06sStrF-8WVeNr_T" version="23.1.3" type="github">
  <diagram id="C5RBs43oDa-KdzZeNtuy" name="Page-1">
    <mxGraphModel dx="955" dy="594" grid="1" gridSize="10" guides="1" tooltips="1" connect="1" arrows="1" fold="1" page="1" pageScale="1" pageWidth="827" pageHeight="1169" math="0" shadow="0">
      <root>
        <mxCell id="WIyWlLk6GJQsqaUBKTNV-0" />
        <mxCell id="WIyWlLk6GJQsqaUBKTNV-1" parent="WIyWlLk6GJQsqaUBKTNV-0" />
        <mxCell id="JD8BXaLGLVg75iJrpQFl-4" value="" style="edgeStyle=orthogonalEdgeStyle;rounded=0;orthogonalLoop=1;jettySize=auto;html=1;" edge="1" parent="WIyWlLk6GJQsqaUBKTNV-1" source="JD8BXaLGLVg75iJrpQFl-0" target="JD8BXaLGLVg75iJrpQFl-2">
          <mxGeometry relative="1" as="geometry" />
        </mxCell>
        <mxCell id="JD8BXaLGLVg75iJrpQFl-0" value="INICIO" style="ellipse;whiteSpace=wrap;html=1;" vertex="1" parent="WIyWlLk6GJQsqaUBKTNV-1">
          <mxGeometry x="250" y="10" width="120" height="80" as="geometry" />
        </mxCell>
        <mxCell id="JD8BXaLGLVg75iJrpQFl-1" value="FIN" style="ellipse;whiteSpace=wrap;html=1;" vertex="1" parent="WIyWlLk6GJQsqaUBKTNV-1">
          <mxGeometry x="250" y="500" width="120" height="80" as="geometry" />
        </mxCell>
        <mxCell id="JD8BXaLGLVg75iJrpQFl-9" value="" style="edgeStyle=orthogonalEdgeStyle;rounded=0;orthogonalLoop=1;jettySize=auto;html=1;" edge="1" parent="WIyWlLk6GJQsqaUBKTNV-1" source="JD8BXaLGLVg75iJrpQFl-2" target="JD8BXaLGLVg75iJrpQFl-5">
          <mxGeometry relative="1" as="geometry" />
        </mxCell>
        <mxCell id="JD8BXaLGLVg75iJrpQFl-2" value="nota1= 3.4&lt;br&gt;nota2 = 5.0&lt;br&gt;nota3 = 2.8" style="rounded=0;whiteSpace=wrap;html=1;" vertex="1" parent="WIyWlLk6GJQsqaUBKTNV-1">
          <mxGeometry x="250" y="120" width="120" height="60" as="geometry" />
        </mxCell>
        <mxCell id="JD8BXaLGLVg75iJrpQFl-10" value="" style="edgeStyle=orthogonalEdgeStyle;rounded=0;orthogonalLoop=1;jettySize=auto;html=1;" edge="1" parent="WIyWlLk6GJQsqaUBKTNV-1" source="JD8BXaLGLVg75iJrpQFl-5" target="JD8BXaLGLVg75iJrpQFl-6">
          <mxGeometry relative="1" as="geometry" />
        </mxCell>
        <mxCell id="JD8BXaLGLVg75iJrpQFl-5" value="sumatoria = nota1+nota2+nota3" style="rounded=0;whiteSpace=wrap;html=1;" vertex="1" parent="WIyWlLk6GJQsqaUBKTNV-1">
          <mxGeometry x="250" y="210" width="120" height="60" as="geometry" />
        </mxCell>
        <mxCell id="JD8BXaLGLVg75iJrpQFl-12" value="" style="edgeStyle=orthogonalEdgeStyle;rounded=0;orthogonalLoop=1;jettySize=auto;html=1;" edge="1" parent="WIyWlLk6GJQsqaUBKTNV-1" source="JD8BXaLGLVg75iJrpQFl-6" target="JD8BXaLGLVg75iJrpQFl-11">
          <mxGeometry relative="1" as="geometry" />
        </mxCell>
        <mxCell id="JD8BXaLGLVg75iJrpQFl-6" value="promedio = sumatoria / 3" style="rounded=0;whiteSpace=wrap;html=1;" vertex="1" parent="WIyWlLk6GJQsqaUBKTNV-1">
          <mxGeometry x="220" y="310" width="180" height="50" as="geometry" />
        </mxCell>
        <mxCell id="JD8BXaLGLVg75iJrpQFl-13" value="" style="edgeStyle=orthogonalEdgeStyle;rounded=0;orthogonalLoop=1;jettySize=auto;html=1;" edge="1" parent="WIyWlLk6GJQsqaUBKTNV-1" source="JD8BXaLGLVg75iJrpQFl-11" target="JD8BXaLGLVg75iJrpQFl-1">
          <mxGeometry relative="1" as="geometry" />
        </mxCell>
        <mxCell id="JD8BXaLGLVg75iJrpQFl-11" value="&quot;El promedio del estudiante es de: &quot;,promedio" style="shape=document;whiteSpace=wrap;html=1;boundedLbl=1;" vertex="1" parent="WIyWlLk6GJQsqaUBKTNV-1">
          <mxGeometry x="250" y="380" width="120" height="80" as="geometry" />
        </mxCell>
      </root>
    </mxGraphModel>
  </diagram>
</mxfile>
